<svg xmlns="http://www.w3.org/2000/svg" xmlns:xlink="http://www.w3.org/1999/xlink" width="500" zoomAndPan="magnify" viewBox="0 0 375 374.999991" height="500" preserveAspectRatio="xMidYMid meet" version="1.0"><defs><g/><clipPath id="id1"><path d="M 10.113281 27.78125 L 364.859375 27.78125 L 364.859375 238.421875 L 10.113281 238.421875 Z M 10.113281 27.78125 " clip-rule="nonzero"/></clipPath><clipPath id="id2"><path d="M 10.113281 230.726562 L 364.859375 230.726562 L 364.859375 276.914062 L 10.113281 276.914062 Z M 10.113281 230.726562 " clip-rule="nonzero"/></clipPath><clipPath id="id3"><path d="M 64.003906 315.40625 L 311 315.40625 L 311 347.21875 L 64.003906 347.21875 Z M 64.003906 315.40625 " clip-rule="nonzero"/></clipPath></defs><g clip-path="url(#id1)"><path fill="#000000" d="M 361.160156 238.21875 C 359.117188 238.21875 357.464844 236.566406 357.464844 234.523438 L 357.464844 35.074219 L 17.503906 35.074219 L 17.503906 234.523438 C 17.503906 236.566406 15.847656 238.21875 13.808594 238.21875 C 11.765625 238.21875 10.113281 236.566406 10.113281 234.523438 L 10.113281 31.378906 C 10.113281 29.339844 11.765625 27.683594 13.808594 27.683594 L 361.160156 27.683594 C 363.203125 27.683594 364.855469 29.339844 364.855469 31.378906 L 364.855469 234.523438 C 364.855469 236.566406 363.203125 238.21875 361.160156 238.21875 " fill-opacity="1" fill-rule="evenodd"/></g><g clip-path="url(#id2)"><path fill="#000000" d="M 17.503906 269.492188 L 357.464844 269.492188 L 357.464844 238.21875 L 17.503906 238.21875 Z M 361.160156 276.882812 L 13.808594 276.882812 C 11.765625 276.882812 10.113281 275.226562 10.113281 273.1875 L 10.113281 234.523438 C 10.113281 232.484375 11.765625 230.832031 13.808594 230.832031 L 361.160156 230.832031 C 363.203125 230.832031 364.855469 232.484375 364.855469 234.523438 L 364.855469 273.1875 C 364.855469 275.226562 363.203125 276.882812 361.160156 276.882812 " fill-opacity="1" fill-rule="evenodd"/></g><path fill="#000000" d="M 122.402344 323.050781 C 120.363281 323.050781 118.707031 321.398438 118.707031 319.355469 L 118.707031 273.1875 C 118.707031 271.144531 120.363281 269.492188 122.402344 269.492188 C 124.445312 269.492188 126.097656 271.144531 126.097656 273.1875 L 126.097656 319.355469 C 126.097656 321.398438 124.445312 323.050781 122.402344 323.050781 Z M 252.566406 323.050781 C 250.523438 323.050781 248.871094 321.398438 248.871094 319.355469 L 248.871094 273.1875 C 248.871094 271.144531 250.523438 269.492188 252.566406 269.492188 C 254.605469 269.492188 256.261719 271.144531 256.261719 273.1875 L 256.261719 319.355469 C 256.261719 321.398438 254.605469 323.050781 252.566406 323.050781 " fill-opacity="1" fill-rule="evenodd"/><g clip-path="url(#id3)"><path fill="#000000" d="M 78.980469 339.832031 L 295.988281 339.832031 L 301.554688 323.050781 L 73.414062 323.050781 Z M 298.65625 347.21875 L 76.3125 347.21875 C 74.71875 347.21875 73.304688 346.199219 72.804688 344.6875 L 64.789062 320.523438 C 64.414062 319.394531 64.605469 318.152344 65.300781 317.191406 C 65.996094 316.230469 67.105469 315.660156 68.296875 315.660156 L 306.671875 315.660156 C 307.855469 315.660156 308.972656 316.234375 309.664062 317.195312 C 310.359375 318.15625 310.550781 319.394531 310.175781 320.523438 L 302.160156 344.6875 C 301.664062 346.199219 300.25 347.21875 298.65625 347.21875 " fill-opacity="1" fill-rule="evenodd"/></g><path fill="#000000" d="M 57.695312 133.96875 L 136.15625 133.96875 L 136.15625 87.703125 L 57.695312 87.703125 Z M 139.851562 141.363281 L 54 141.363281 C 51.957031 141.363281 50.304688 139.707031 50.304688 137.667969 L 50.304688 84.007812 C 50.304688 81.96875 51.957031 80.3125 54 80.3125 L 139.851562 80.3125 C 141.894531 80.3125 143.546875 81.96875 143.546875 84.007812 L 143.546875 137.667969 C 143.546875 139.707031 141.894531 141.363281 139.851562 141.363281 " fill-opacity="1" fill-rule="evenodd"/><path fill="#000000" d="M 83.035156 80.3125 L 110.820312 80.3125 L 110.820312 69.222656 L 83.035156 69.222656 Z M 114.515625 87.703125 L 79.335938 87.703125 C 77.296875 87.703125 75.640625 86.050781 75.640625 84.007812 L 75.640625 65.527344 C 75.640625 63.484375 77.296875 61.832031 79.335938 61.832031 L 114.515625 61.832031 C 116.558594 61.832031 118.210938 63.484375 118.210938 65.527344 L 118.210938 84.007812 C 118.210938 86.050781 116.558594 87.703125 114.515625 87.703125 " fill-opacity="1" fill-rule="evenodd"/><path fill="#000000" d="M 87.757812 114.53125 L 54 114.53125 C 51.957031 114.53125 50.304688 112.878906 50.304688 110.835938 C 50.304688 108.796875 51.957031 107.140625 54 107.140625 L 87.757812 107.140625 C 89.800781 107.140625 91.453125 108.796875 91.453125 110.835938 C 91.453125 112.878906 89.796875 114.53125 87.757812 114.53125 Z M 139.851562 114.53125 L 106.09375 114.53125 C 104.050781 114.53125 102.402344 112.878906 102.402344 110.835938 C 102.402344 108.796875 104.050781 107.140625 106.09375 107.140625 L 139.851562 107.140625 C 141.894531 107.140625 143.546875 108.796875 143.546875 110.835938 C 143.546875 112.878906 141.894531 114.53125 139.851562 114.53125 " fill-opacity="1" fill-rule="evenodd"/><path fill="#000000" d="M 96.925781 105.363281 C 93.910156 105.363281 91.453125 107.820312 91.453125 110.835938 C 91.453125 113.855469 93.910156 116.308594 96.925781 116.308594 C 99.945312 116.308594 102.402344 113.855469 102.402344 110.835938 C 102.402344 107.820312 99.945312 105.363281 96.925781 105.363281 Z M 96.925781 123.699219 C 89.835938 123.699219 84.0625 117.929688 84.0625 110.835938 C 84.0625 103.742188 89.835938 97.972656 96.925781 97.972656 C 104.019531 97.972656 109.792969 103.742188 109.792969 110.835938 C 109.792969 117.929688 104.019531 123.699219 96.925781 123.699219 " fill-opacity="1" fill-rule="evenodd"/><path fill="#000000" d="M 222.324219 81.9375 C 207.96875 81.9375 194.464844 87.53125 184.316406 97.679688 C 174.164062 107.832031 168.574219 121.332031 168.574219 135.6875 C 168.574219 150.046875 174.164062 163.546875 184.316406 173.695312 C 194.464844 183.847656 207.96875 189.441406 222.324219 189.441406 C 236.679688 189.441406 250.179688 183.847656 260.332031 173.695312 C 270.484375 163.546875 276.074219 150.046875 276.074219 135.6875 C 276.074219 121.332031 270.480469 107.832031 260.332031 97.679688 C 250.179688 87.53125 236.679688 81.9375 222.324219 81.9375 Z M 222.324219 196.832031 C 205.992188 196.832031 190.640625 190.46875 179.09375 178.921875 C 155.253906 155.082031 155.253906 116.296875 179.09375 92.457031 C 190.640625 80.910156 205.996094 74.546875 222.324219 74.546875 C 238.652344 74.546875 254.007812 80.910156 265.558594 92.457031 C 289.398438 116.296875 289.398438 155.082031 265.558594 178.921875 C 254.007812 190.46875 238.65625 196.832031 222.324219 196.832031 " fill-opacity="1" fill-rule="evenodd"/><path fill="#000000" d="M 292.699219 209.761719 C 291.757812 209.761719 290.808594 209.398438 290.09375 208.679688 L 260.332031 178.921875 C 258.886719 177.480469 258.886719 175.140625 260.332031 173.699219 C 261.777344 172.253906 264.117188 172.253906 265.558594 173.699219 L 295.316406 203.453125 C 296.761719 204.898438 296.761719 207.234375 295.316406 208.679688 C 294.59375 209.398438 293.648438 209.761719 292.699219 209.761719 " fill-opacity="1" fill-rule="evenodd"/><path fill="#000000" d="M 316.367188 69.222656 L 175.085938 69.222656 C 173.042969 69.222656 171.390625 67.566406 171.390625 65.527344 C 171.390625 63.484375 173.042969 61.832031 175.085938 61.832031 L 316.367188 61.832031 C 318.410156 61.832031 320.0625 63.484375 320.0625 65.527344 C 320.0625 67.566406 318.410156 69.222656 316.367188 69.222656 " fill-opacity="1" fill-rule="evenodd"/><path fill="#000000" d="M 316.367188 93.269531 L 284.140625 93.269531 C 282.101562 93.269531 280.445312 91.613281 280.445312 89.574219 C 280.445312 87.53125 282.101562 85.878906 284.140625 85.878906 L 316.367188 85.878906 C 318.410156 85.878906 320.0625 87.53125 320.0625 89.574219 C 320.0625 91.613281 318.410156 93.269531 316.367188 93.269531 " fill-opacity="1" fill-rule="evenodd"/><path fill="#000000" d="M 316.367188 117.3125 L 293.160156 117.3125 C 291.117188 117.3125 289.460938 115.660156 289.460938 113.617188 C 289.460938 111.578125 291.117188 109.921875 293.160156 109.921875 L 316.367188 109.921875 C 318.410156 109.921875 320.0625 111.578125 320.0625 113.617188 C 320.0625 115.660156 318.410156 117.3125 316.367188 117.3125 " fill-opacity="1" fill-rule="evenodd"/><path fill="#000000" d="M 316.367188 141.363281 L 299.503906 141.363281 C 297.464844 141.363281 295.808594 139.707031 295.808594 137.667969 C 295.808594 135.628906 297.464844 133.96875 299.503906 133.96875 L 316.367188 133.96875 C 318.410156 133.96875 320.0625 135.628906 320.0625 137.667969 C 320.0625 139.707031 318.410156 141.363281 316.367188 141.363281 " fill-opacity="1" fill-rule="evenodd"/><path fill="#000000" d="M 273.28125 213.5 L 54.019531 213.5 C 51.976562 213.5 50.324219 211.847656 50.324219 209.804688 C 50.324219 207.765625 51.976562 206.109375 54.019531 206.109375 L 273.28125 206.109375 C 275.324219 206.109375 276.976562 207.765625 276.976562 209.804688 C 276.976562 211.847656 275.324219 213.5 273.28125 213.5 " fill-opacity="1" fill-rule="evenodd"/><path fill="#000000" d="M 166.085938 189.457031 L 54.019531 189.457031 C 51.976562 189.457031 50.324219 187.800781 50.324219 185.761719 C 50.324219 183.71875 51.976562 182.066406 54.019531 182.066406 L 166.085938 182.066406 C 168.128906 182.066406 169.785156 183.71875 169.785156 185.761719 C 169.785156 187.800781 168.128906 189.457031 166.085938 189.457031 Z M 316.367188 189.457031 L 295.59375 189.457031 C 293.554688 189.457031 291.898438 187.800781 291.898438 185.761719 C 291.898438 183.71875 293.554688 182.066406 295.59375 182.066406 L 316.367188 182.066406 C 318.410156 182.066406 320.0625 183.71875 320.0625 185.761719 C 320.0625 187.800781 318.410156 189.457031 316.367188 189.457031 " fill-opacity="1" fill-rule="evenodd"/><path fill="#000000" d="M 151.726562 165.410156 L 54.019531 165.410156 C 51.976562 165.410156 50.324219 163.753906 50.324219 161.714844 C 50.324219 159.671875 51.976562 158.019531 54.019531 158.019531 L 151.726562 158.019531 C 153.769531 158.019531 155.425781 159.671875 155.425781 161.714844 C 155.425781 163.753906 153.769531 165.410156 151.726562 165.410156 Z M 316.367188 165.410156 L 288.246094 165.410156 C 286.207031 165.410156 284.550781 163.753906 284.550781 161.714844 C 284.550781 159.671875 286.207031 158.019531 288.246094 158.019531 L 316.367188 158.019531 C 318.410156 158.019531 320.0625 159.671875 320.0625 161.714844 C 320.0625 163.753906 318.410156 165.410156 316.367188 165.410156 " fill-opacity="1" fill-rule="evenodd"/><path fill="#000000" d="M 196.820312 164.890625 C 195.871094 164.890625 194.929688 164.53125 194.207031 163.808594 C 178.703125 148.300781 178.703125 123.078125 194.207031 107.570312 C 195.652344 106.128906 197.988281 106.128906 199.433594 107.570312 C 200.875 109.015625 200.875 111.351562 199.433594 112.796875 C 186.808594 125.421875 186.808594 145.957031 199.433594 158.582031 C 200.875 160.027344 200.875 162.363281 199.433594 163.808594 C 198.710938 164.53125 197.761719 164.890625 196.820312 164.890625 " fill-opacity="1" fill-rule="evenodd"/><g fill="#000000" fill-opacity="1"><g transform="translate(56.314736, 263.01694)"><g><path d="M 1.40625 -19.4375 L 7.453125 -19.4375 C 9.265625 -19.4375 10.710938 -19.046875 11.796875 -18.265625 C 12.890625 -17.492188 13.4375 -16.234375 13.4375 -14.484375 C 13.4375 -12.535156 12.625 -11.148438 11 -10.328125 C 13.769531 -9.835938 15.15625 -8.203125 15.15625 -5.421875 C 15.15625 -3.785156 14.585938 -2.472656 13.453125 -1.484375 C 12.316406 -0.492188 10.757812 0 8.78125 0 L 1.40625 0 Z M 5.84375 -11.828125 L 6.203125 -11.828125 C 7.191406 -11.828125 7.925781 -12 8.40625 -12.34375 C 8.894531 -12.6875 9.140625 -13.253906 9.140625 -14.046875 C 9.140625 -15.359375 8.160156 -16.015625 6.203125 -16.015625 L 5.84375 -16.015625 Z M 5.84375 -3.421875 L 7.234375 -3.421875 C 9.398438 -3.421875 10.484375 -4.140625 10.484375 -5.578125 C 10.484375 -6.441406 10.210938 -7.0625 9.671875 -7.4375 C 9.128906 -7.820312 8.316406 -8.015625 7.234375 -8.015625 L 5.84375 -8.015625 Z M 5.84375 -3.421875 "/></g></g></g><g fill="#000000" fill-opacity="1"><g transform="translate(73.769218, 263.01694)"><g><path d="M 12.53125 -19.4375 L 12.53125 -15.546875 L 5.84375 -15.546875 L 5.84375 -11.6875 L 12.25 -11.6875 L 12.25 -7.796875 L 5.84375 -7.796875 L 5.84375 -3.890625 L 12.53125 -3.890625 L 12.53125 0 L 1.40625 0 L 1.40625 -19.4375 Z M 12.53125 -19.4375 "/></g></g></g><g fill="#000000" fill-opacity="1"><g transform="translate(89.198004, 263.01694)"><g><path d="M 1.40625 -19.4375 L 8.359375 -19.4375 C 10.234375 -19.4375 11.757812 -18.9375 12.9375 -17.9375 C 14.113281 -16.945312 14.703125 -15.523438 14.703125 -13.671875 C 14.703125 -12.234375 14.34375 -11.03125 13.625 -10.0625 C 12.914062 -9.101562 11.945312 -8.425781 10.71875 -8.03125 L 17.40625 0 L 11.78125 0 L 5.84375 -7.6875 L 5.84375 0 L 1.40625 0 Z M 5.84375 -10.8125 L 6.359375 -10.8125 C 6.765625 -10.8125 7.109375 -10.816406 7.390625 -10.828125 C 7.679688 -10.847656 8.003906 -10.90625 8.359375 -11 C 8.722656 -11.09375 9.015625 -11.222656 9.234375 -11.390625 C 9.453125 -11.566406 9.640625 -11.820312 9.796875 -12.15625 C 9.953125 -12.488281 10.03125 -12.890625 10.03125 -13.359375 C 10.03125 -13.828125 9.953125 -14.226562 9.796875 -14.5625 C 9.640625 -14.894531 9.453125 -15.144531 9.234375 -15.3125 C 9.015625 -15.488281 8.722656 -15.625 8.359375 -15.71875 C 8.003906 -15.8125 7.679688 -15.863281 7.390625 -15.875 C 7.109375 -15.894531 6.765625 -15.90625 6.359375 -15.90625 L 5.84375 -15.90625 Z M 5.84375 -10.8125 "/></g></g></g><g fill="#000000" fill-opacity="1"><g transform="translate(107.83022, 263.01694)"><g><path d="M 0.546875 -9.734375 C 0.546875 -12.546875 1.503906 -14.925781 3.421875 -16.875 C 5.335938 -18.820312 7.644531 -19.796875 10.34375 -19.796875 C 13.0625 -19.796875 15.367188 -18.820312 17.265625 -16.875 C 19.171875 -14.9375 20.125 -12.554688 20.125 -9.734375 C 20.125 -6.890625 19.1875 -4.492188 17.3125 -2.546875 C 15.445312 -0.609375 13.125 0.359375 10.34375 0.359375 C 7.5 0.359375 5.15625 -0.601562 3.3125 -2.53125 C 1.46875 -4.457031 0.546875 -6.859375 0.546875 -9.734375 Z M 5.328125 -9.734375 C 5.328125 -8.710938 5.484375 -7.78125 5.796875 -6.9375 C 6.109375 -6.09375 6.65625 -5.378906 7.4375 -4.796875 C 8.226562 -4.222656 9.195312 -3.9375 10.34375 -3.9375 C 11.988281 -3.9375 13.234375 -4.5 14.078125 -5.625 C 14.921875 -6.757812 15.34375 -8.128906 15.34375 -9.734375 C 15.34375 -11.316406 14.910156 -12.675781 14.046875 -13.8125 C 13.191406 -14.957031 11.957031 -15.53125 10.34375 -15.53125 C 8.738281 -15.53125 7.5 -14.957031 6.625 -13.8125 C 5.757812 -12.675781 5.328125 -11.316406 5.328125 -9.734375 Z M 5.328125 -9.734375 "/></g></g></g><g fill="#000000" fill-opacity="1"><g transform="translate(130.254734, 263.01694)"><g><path d="M 9.875 -19.4375 L 9.875 -5.484375 C 9.875 -3.585938 9.347656 -2.140625 8.296875 -1.140625 C 7.253906 -0.140625 5.757812 0.359375 3.8125 0.359375 C 3.300781 0.359375 2.789062 0.289062 2.28125 0.15625 C 1.78125 0.03125 1.359375 -0.117188 1.015625 -0.296875 C 0.671875 -0.472656 0.359375 -0.65625 0.078125 -0.84375 C -0.191406 -1.03125 -0.390625 -1.1875 -0.515625 -1.3125 L -0.734375 -1.515625 L 0.6875 -5.203125 C 1.613281 -4.328125 2.453125 -3.890625 3.203125 -3.890625 C 3.878906 -3.890625 4.421875 -4.113281 4.828125 -4.5625 C 5.234375 -5.007812 5.4375 -5.695312 5.4375 -6.625 L 5.4375 -19.4375 Z M 9.875 -19.4375 "/></g></g></g><g fill="#000000" fill-opacity="1"><g transform="translate(143.068957, 263.01694)"><g><path d="M 18.984375 -10.890625 L 18.984375 -6.671875 C 18.484375 -4.359375 17.382812 -2.609375 15.6875 -1.421875 C 13.988281 -0.234375 12.097656 0.359375 10.015625 0.359375 C 7.390625 0.359375 5.15625 -0.617188 3.3125 -2.578125 C 1.46875 -4.546875 0.546875 -6.921875 0.546875 -9.703125 C 0.546875 -12.535156 1.445312 -14.925781 3.25 -16.875 C 5.0625 -18.820312 7.316406 -19.796875 10.015625 -19.796875 C 13.171875 -19.796875 15.664062 -18.6875 17.5 -16.46875 L 14.609375 -13.296875 C 13.566406 -14.953125 12.117188 -15.78125 10.265625 -15.78125 C 8.898438 -15.78125 7.734375 -15.1875 6.765625 -14 C 5.804688 -12.820312 5.328125 -11.390625 5.328125 -9.703125 C 5.328125 -8.054688 5.804688 -6.644531 6.765625 -5.46875 C 7.734375 -4.300781 8.898438 -3.71875 10.265625 -3.71875 C 11.398438 -3.71875 12.382812 -4.054688 13.21875 -4.734375 C 14.0625 -5.421875 14.484375 -6.332031 14.484375 -7.46875 L 10.015625 -7.46875 L 10.015625 -10.890625 Z M 18.984375 -10.890625 "/></g></g></g><g fill="#000000" fill-opacity="1"><g transform="translate(164.36284, 263.01694)"><g><path d="M 11.28125 -19.4375 L 19.125 0 L 14.375 0 L 12.9375 -3.890625 L 5.53125 -3.890625 L 4.09375 0 L -0.65625 0 L 7.1875 -19.4375 Z M 11.421875 -7.78125 L 9.265625 -13.4375 L 9.21875 -13.4375 L 7.046875 -7.78125 Z M 11.421875 -7.78125 "/></g></g></g><g fill="#000000" fill-opacity="1"><g transform="translate(184.596771, 263.01694)"><g><path d="M 1.40625 -19.4375 L 8.359375 -19.4375 C 10.234375 -19.4375 11.757812 -18.9375 12.9375 -17.9375 C 14.113281 -16.945312 14.703125 -15.523438 14.703125 -13.671875 C 14.703125 -12.234375 14.34375 -11.03125 13.625 -10.0625 C 12.914062 -9.101562 11.945312 -8.425781 10.71875 -8.03125 L 17.40625 0 L 11.78125 0 L 5.84375 -7.6875 L 5.84375 0 L 1.40625 0 Z M 5.84375 -10.8125 L 6.359375 -10.8125 C 6.765625 -10.8125 7.109375 -10.816406 7.390625 -10.828125 C 7.679688 -10.847656 8.003906 -10.90625 8.359375 -11 C 8.722656 -11.09375 9.015625 -11.222656 9.234375 -11.390625 C 9.453125 -11.566406 9.640625 -11.820312 9.796875 -12.15625 C 9.953125 -12.488281 10.03125 -12.890625 10.03125 -13.359375 C 10.03125 -13.828125 9.953125 -14.226562 9.796875 -14.5625 C 9.640625 -14.894531 9.453125 -15.144531 9.234375 -15.3125 C 9.015625 -15.488281 8.722656 -15.625 8.359375 -15.71875 C 8.003906 -15.8125 7.679688 -15.863281 7.390625 -15.875 C 7.109375 -15.894531 6.765625 -15.90625 6.359375 -15.90625 L 5.84375 -15.90625 Z M 5.84375 -10.8125 "/></g></g></g><g fill="#000000" fill-opacity="1"><g transform="translate(203.228988, 263.01694)"><g/></g></g><g fill="#000000" fill-opacity="1"><g transform="translate(211.426505, 263.01694)"><g><path d="M 11.75 -4 C 12.425781 -4 13.082031 -4.101562 13.71875 -4.3125 C 14.351562 -4.519531 14.820312 -4.71875 15.125 -4.90625 L 15.578125 -5.203125 L 17.453125 -1.4375 C 17.390625 -1.382812 17.300781 -1.316406 17.1875 -1.234375 C 17.082031 -1.160156 16.828125 -1.019531 16.421875 -0.8125 C 16.023438 -0.601562 15.597656 -0.421875 15.140625 -0.265625 C 14.691406 -0.109375 14.097656 0.03125 13.359375 0.15625 C 12.617188 0.289062 11.859375 0.359375 11.078125 0.359375 C 9.265625 0.359375 7.550781 -0.0820312 5.9375 -0.96875 C 4.320312 -1.863281 3.019531 -3.085938 2.03125 -4.640625 C 1.039062 -6.191406 0.546875 -7.875 0.546875 -9.6875 C 0.546875 -11.050781 0.832031 -12.359375 1.40625 -13.609375 C 1.988281 -14.867188 2.765625 -15.945312 3.734375 -16.84375 C 4.703125 -17.738281 5.828125 -18.453125 7.109375 -18.984375 C 8.398438 -19.523438 9.722656 -19.796875 11.078125 -19.796875 C 12.328125 -19.796875 13.484375 -19.644531 14.546875 -19.34375 C 15.609375 -19.039062 16.359375 -18.742188 16.796875 -18.453125 L 17.453125 -18 L 15.578125 -14.234375 C 15.460938 -14.328125 15.296875 -14.441406 15.078125 -14.578125 C 14.859375 -14.710938 14.414062 -14.890625 13.75 -15.109375 C 13.09375 -15.328125 12.425781 -15.4375 11.75 -15.4375 C 10.6875 -15.4375 9.726562 -15.257812 8.875 -14.90625 C 8.03125 -14.5625 7.359375 -14.109375 6.859375 -13.546875 C 6.367188 -12.984375 5.992188 -12.375 5.734375 -11.71875 C 5.472656 -11.070312 5.34375 -10.410156 5.34375 -9.734375 C 5.34375 -8.253906 5.894531 -6.925781 7 -5.75 C 8.113281 -4.582031 9.695312 -4 11.75 -4 Z M 11.75 -4 "/></g></g></g><g fill="#000000" fill-opacity="1"><g transform="translate(230.930234, 263.01694)"><g><path d="M 5.84375 -7.796875 L 5.84375 0 L 1.40625 0 L 1.40625 -19.4375 L 5.84375 -19.4375 L 5.84375 -11.6875 L 12.109375 -11.6875 L 12.109375 -19.4375 L 16.546875 -19.4375 L 16.546875 0 L 12.109375 0 L 12.109375 -7.796875 Z M 5.84375 -7.796875 "/></g></g></g><g fill="#000000" fill-opacity="1"><g transform="translate(250.645977, 263.01694)"><g><path d="M 12.53125 -19.4375 L 12.53125 -15.546875 L 5.84375 -15.546875 L 5.84375 -11.6875 L 12.25 -11.6875 L 12.25 -7.796875 L 5.84375 -7.796875 L 5.84375 -3.890625 L 12.53125 -3.890625 L 12.53125 0 L 1.40625 0 L 1.40625 -19.4375 Z M 12.53125 -19.4375 "/></g></g></g><g fill="#000000" fill-opacity="1"><g transform="translate(266.074763, 263.01694)"><g><path d="M 19.109375 0 L 13 0 L 5.84375 -8.25 L 5.84375 0 L 1.40625 0 L 1.40625 -19.4375 L 5.84375 -19.4375 L 5.84375 -11.5 L 12.515625 -19.4375 L 17.890625 -19.4375 L 10.0625 -10.21875 Z M 19.109375 0 "/></g></g></g><g fill="#000000" fill-opacity="1"><g transform="translate(286.37935, 263.01694)"><g><path d="M 12.53125 -19.4375 L 12.53125 -15.546875 L 5.84375 -15.546875 L 5.84375 -11.6875 L 12.25 -11.6875 L 12.25 -7.796875 L 5.84375 -7.796875 L 5.84375 -3.890625 L 12.53125 -3.890625 L 12.53125 0 L 1.40625 0 L 1.40625 -19.4375 Z M 12.53125 -19.4375 "/></g></g></g><g fill="#000000" fill-opacity="1"><g transform="translate(301.808136, 263.01694)"><g><path d="M 1.40625 -19.4375 L 8.359375 -19.4375 C 10.234375 -19.4375 11.757812 -18.9375 12.9375 -17.9375 C 14.113281 -16.945312 14.703125 -15.523438 14.703125 -13.671875 C 14.703125 -12.234375 14.34375 -11.03125 13.625 -10.0625 C 12.914062 -9.101562 11.945312 -8.425781 10.71875 -8.03125 L 17.40625 0 L 11.78125 0 L 5.84375 -7.6875 L 5.84375 0 L 1.40625 0 Z M 5.84375 -10.8125 L 6.359375 -10.8125 C 6.765625 -10.8125 7.109375 -10.816406 7.390625 -10.828125 C 7.679688 -10.847656 8.003906 -10.90625 8.359375 -11 C 8.722656 -11.09375 9.015625 -11.222656 9.234375 -11.390625 C 9.453125 -11.566406 9.640625 -11.820312 9.796875 -12.15625 C 9.953125 -12.488281 10.03125 -12.890625 10.03125 -13.359375 C 10.03125 -13.828125 9.953125 -14.226562 9.796875 -14.5625 C 9.640625 -14.894531 9.453125 -15.144531 9.234375 -15.3125 C 9.015625 -15.488281 8.722656 -15.625 8.359375 -15.71875 C 8.003906 -15.8125 7.679688 -15.863281 7.390625 -15.875 C 7.109375 -15.894531 6.765625 -15.90625 6.359375 -15.90625 L 5.84375 -15.90625 Z M 5.84375 -10.8125 "/></g></g></g></svg>